<svg xmlns="http://www.w3.org/2000/svg" xmlns:xlink="http://www.w3.org/1999/xlink" xml:space="preserve" version="1.1" style="shape-rendering:geometricPrecision;text-rendering:geometricPrecision;image-rendering:optimizeQuality;" viewBox="0 0 7.005 8.75625" x="0px" y="0px" fill-rule="evenodd" clip-rule="evenodd"><defs><style type="text/css">
   
    .fil0 {fill:none}
    .fil1 {fill:black;fill-rule:nonzero}
   
  </style></defs><g><g><path class="fil0" d="M0 0c2.335,0 4.67,0 7.005,0 0,2.335 0,4.67 0,7.005 -2.335,0 -4.67,0 -7.005,0 0,-2.335 0,-4.67 0,-7.005z"/><path class="fil1" d="M0.005 6.099l0 -4.011 0 -1.182c0,-0.185 0.075,-0.352 0.196,-0.473 0.121,-0.121 0.289,-0.197 0.473,-0.197l2.219 0 1.182 1.183 2.256 0c0.183,0 0.35,0.075 0.472,0.196l0.001 0.001c0.121,0.122 0.196,0.289 0.196,0.472l0 4.011c0,0.184 -0.075,0.352 -0.196,0.473l-0.001 -0.001c-0.121,0.122 -0.288,0.197 -0.472,0.197l-5.657 0c-0.184,0 -0.351,-0.075 -0.473,-0.197l0 0.001c-0.121,-0.121 -0.196,-0.289 -0.196,-0.473zm0.411 -4.628c0.079,-0.034 0.167,-0.052 0.258,-0.052l2.82 0 -0.771 -0.771 -2.049 0c-0.071,0 -0.136,0.029 -0.182,0.076 -0.047,0.046 -0.076,0.111 -0.076,0.182l0 0.565zm0 0.617l0 4.011c0,0.071 0.029,0.135 0.076,0.182l0 0.001c0.046,0.046 0.111,0.075 0.182,0.075l5.657 0c0.071,0 0.136,-0.029 0.182,-0.075l0 -0.001c0.047,-0.047 0.076,-0.111 0.076,-0.182l0 -4.011c0,-0.071 -0.029,-0.136 -0.075,-0.182l-0.001 -0.001c-0.046,-0.046 -0.111,-0.075 -0.182,-0.075l-5.657 0c-0.071,0 -0.136,0.029 -0.182,0.075l-0.001 0.001c-0.046,0.046 -0.075,0.111 -0.075,0.182z"/></g></g><text x="0" y="22.005" fill="#000000" font-size="5px" font-weight="bold" font-family="'Helvetica Neue', Helvetica, Arial-Unicode, Arial, Sans-serif">Created by Deemak Daksina</text><text x="0" y="27.005" fill="#000000" font-size="5px" font-weight="bold" font-family="'Helvetica Neue', Helvetica, Arial-Unicode, Arial, Sans-serif">from the Noun Project</text></svg>