<svg xmlns:dc="http://purl.org/dc/elements/1.1/" xmlns:cc="http://creativecommons.org/ns#" xmlns:rdf="http://www.w3.org/1999/02/22-rdf-syntax-ns#" xmlns:svg="http://www.w3.org/2000/svg" xmlns="http://www.w3.org/2000/svg" xmlns:sodipodi="http://sodipodi.sourceforge.net/DTD/sodipodi-0.dtd" xmlns:inkscape="http://www.inkscape.org/namespaces/inkscape" version="1.1" x="0px" y="0px" viewBox="0 0 80 100"><g transform="translate(0,-972.36218)"><path style="text-indent:0;text-transform:none;direction:ltr;block-progression:tb;baseline-shift:baseline;color:#000000;enable-background:accumulate;" d="m 40,992.36218 c -3.6158,0 -6.7394,1.715 -8.8125,4.3125 -2.0731,2.5975 -3.1875,6.04552 -3.1875,9.68752 0,7.122 -1.5405,10.3623 -3.2188,13.2812 -1.6781,2.919 -3.7812,5.7986 -3.7812,10.7188 a 2.0001999,2.0001999 0 0 0 2,2 l 34,0 a 2.0001999,2.0001999 0 0 0 2,-2 c 0,-4.9202 -2.1032,-7.7998 -3.7812,-10.7188 C 53.5405,1016.7245 52,1013.4842 52,1006.3622 c 0,-3.642 -1.1144,-7.09002 -3.1875,-9.68752 -2.0731,-2.5975 -5.1967,-4.3125 -8.8125,-4.3125 z m -24,2.9687 a 2.0001995,2.0001995 0 0 0 -1.5312,1.0625 C 12.2457,1000.502 11,1005.232 11,1010.2059 c 0,4.9738 1.2456,9.7039 3.4688,13.8125 a 2.0001995,2.0001995 0 1 0 3.5,-1.9062 C 16.062,1018.5881 15,1014.5196 15,1010.2059 c 0,-4.3138 1.0619,-8.3822 2.9688,-11.90622 A 2.0001995,2.0001995 0 0 0 16,995.33088 z m 47.5625,0 a 2.0001995,2.0001995 0 0 0 -1.5313,2.9688 C 63.9381,1001.8237 65,1005.892 65,1010.2059 c 0,4.3138 -1.0619,8.3822 -2.9688,11.9063 a 2.0001995,2.0001995 0 1 0 3.5,1.9062 c 2.2232,-4.1087 3.4688,-8.8388 3.4688,-13.8125 0,-4.9738 -1.2456,-9.7038 -3.4688,-13.81252 a 2.0001995,2.0001995 0 0 0 -1.9687,-1.0625 z M 40,996.36218 c 2.3842,0 4.2606,1.0246 5.6875,2.8125 1.4269,1.78792 2.3125,4.37142 2.3125,7.18752 0,7.7495 1.9595,12.1123 3.7812,15.2812 1.4666,2.5509 2.6186,4.1825 3.0313,6.7188 l -29.625,0 c 0.4127,-2.5363 1.5646,-4.1679 3.0313,-6.7188 1.8217,-3.1689 3.7812,-7.5317 3.7812,-15.2812 0,-2.8161 0.8856,-5.3996 2.3125,-7.18752 1.4269,-1.7879 3.3033,-2.8125 5.6875,-2.8125 z m -19.4688,3.4687 a 2.0001998,2.0001998 0 0 0 -1.6562,1.21882 c -1.2109,2.7639 -2.0938,5.7844 -2.0938,9.1562 0,2.7378 0.4956,5.3727 1.4063,7.7813 a 2.0025097,2.0025097 0 1 0 3.75,-1.4063 c -0.7425,-1.9638 -1.1563,-4.1285 -1.1563,-6.375 0,-2.6771 0.6797,-5.1194 1.75,-7.5625 a 2.0001998,2.0001998 0 0 0 -2,-2.81252 z m 38.5,0 a 2.0001998,2.0001998 0 0 0 -1.5624,2.81252 c 1.0702,2.4431 1.75,4.8854 1.75,7.5625 0,2.2465 -0.4139,4.4111 -1.1563,6.375 a 2.0025097,2.0025097 0 1 0 3.75,1.4063 c 0.9106,-2.4086 1.4063,-5.0435 1.4063,-7.7813 0,-3.3718 -0.883,-6.3923 -2.0938,-9.1562 a 2.0001998,2.0001998 0 0 0 -2.0938,-1.21882 z" fill="#000000" fill-opacity="1" stroke="none" marker="none" visibility="visible" display="inline" overflow="visible"/></g><text x="0" y="95" fill="#000000" font-size="5px" font-weight="bold" font-family="'Helvetica Neue', Helvetica, Arial-Unicode, Arial, Sans-serif">Created by Aybige</text><text x="0" y="100" fill="#000000" font-size="5px" font-weight="bold" font-family="'Helvetica Neue', Helvetica, Arial-Unicode, Arial, Sans-serif">from the Noun Project</text></svg>