<svg xmlns="http://www.w3.org/2000/svg" xmlns:xlink="http://www.w3.org/1999/xlink" xml:space="preserve" version="1.1" style="shape-rendering:geometricPrecision;text-rendering:geometricPrecision;image-rendering:optimizeQuality;" viewBox="0 0 9.896 12.370000000000001" x="0px" y="0px" fill-rule="evenodd" clip-rule="evenodd"><defs><style type="text/css">
   
    .fil0 {fill:none}
    .fil1 {fill:black;fill-rule:nonzero}
   
  </style></defs><g><g><path class="fil0" d="M0 0c3.299,0 6.597,0 9.896,0 0,3.299 0,6.597 0,9.896 -3.299,0 -6.597,0 -9.896,0 0,-3.299 0,-6.597 0,-9.896z"/><path class="fil1" d="M5.542 0.46c1.043,0 1.988,0.423 2.672,1.107 0.684,0.683 1.107,1.628 1.107,2.671 0,1.044 -0.423,1.988 -1.107,2.672 -0.684,0.684 -1.629,1.107 -2.672,1.107 -0.678,0 -1.314,-0.178 -1.863,-0.491l-1.724 1.723c-0.124,0.125 -0.288,0.187 -0.451,0.187 -0.163,0 -0.326,-0.062 -0.45,-0.187l-0.001 0 -0.291 -0.291 0 -0.001c-0.125,-0.124 -0.187,-0.287 -0.187,-0.45 0,-0.162 0.062,-0.325 0.187,-0.45l0 -0.001 1.67 -1.671c-0.422,-0.609 -0.669,-1.349 -0.669,-2.147 0,-1.043 0.423,-1.988 1.107,-2.671 0.684,-0.684 1.629,-1.107 2.672,-1.107zm0 1.743c-0.16,0 -0.29,-0.13 -0.29,-0.29 0,-0.16 0.13,-0.291 0.29,-0.291 0.722,0 1.376,0.293 1.85,0.767 0.473,0.473 0.766,1.127 0.766,1.849 0,0.161 -0.13,0.291 -0.29,0.291 -0.161,0 -0.291,-0.13 -0.291,-0.291 0,-0.562 -0.228,-1.07 -0.596,-1.439 -0.368,-0.368 -0.877,-0.596 -1.439,-0.596zm-2.353 4.992c-0.112,-0.089 -0.218,-0.184 -0.319,-0.285 -0.023,-0.023 -0.047,-0.047 -0.07,-0.071l-1.628 1.628 0 -0.001c-0.011,0.011 -0.016,0.026 -0.016,0.041 0,0.016 0.005,0.031 0.016,0.041l0 0 0.291 0.291 0 0c0.011,0.011 0.026,0.016 0.041,0.016 0.015,0 0.03,-0.005 0.041,-0.016l1.644 -1.644zm4.614 -5.218c-0.578,-0.578 -1.378,-0.936 -2.261,-0.936 -0.883,0 -1.683,0.358 -2.261,0.936 -0.579,0.579 -0.937,1.378 -0.937,2.261 0,0.884 0.358,1.683 0.937,2.262 0.578,0.578 1.378,0.936 2.261,0.936 0.883,0 1.683,-0.358 2.261,-0.936 0.579,-0.579 0.937,-1.378 0.937,-2.262 0,-0.883 -0.358,-1.682 -0.937,-2.261z"/></g></g><text x="0" y="24.896" fill="#000000" font-size="5px" font-weight="bold" font-family="'Helvetica Neue', Helvetica, Arial-Unicode, Arial, Sans-serif">Created by Deemak Daksina</text><text x="0" y="29.896" fill="#000000" font-size="5px" font-weight="bold" font-family="'Helvetica Neue', Helvetica, Arial-Unicode, Arial, Sans-serif">from the Noun Project</text></svg>